max v2;#N vpatcher 417 197 1040 509;#P window setfont "Sans Serif" 9.;#P window linecount 1;#P comment 23 269 100 196617 wide donamyc off;#P message 24 248 91 196617 129 1 4 61 3 255;#P comment 22 228 100 196617 wide donamyc on;#P message 24 213 91 196617 129 1 4 61 2 255;#P comment 45 76 100 196617 noir et blanc;#P message 72 127 91 196617 129 1 4 99 0 255;#P message 52 90 91 196617 129 1 4 99 4 255;#P message 190 170 100 196617 129 1 4 52 2 255;#P message 170 118 91 196617 129 1 4 52 0 255;#P newex 170 210 59 196617 s /serial.1;#B color 6;#P number 402 185 35 9 0 0 0 3 0 0 0 221 221 221 222 222 222 0 0 0;#P number 402 143 35 9 0 0 16 3 0 0 0 221 221 221 222 222 222 0 0 0;#P message 182 144 100 196617 129 1 4 52 2 255;#P window setfont Times 9.;#N vpatcher 254 68 476 301;#N comlet to thispatcher;#P outlet 31 190 15 0;#N comlet from toggle;#P inlet 16 106 15 0;#N comlet to toggle;#P outlet 16 72 15 0;#P window setfont Times 9.;#P newex 16 52 18 1310729 t 1;#P newex 16 31 43 1310729 loadbang;#P newex 16 124 40 1310729 sel 1 0;#P window setfont "Sans Serif" 9.;#P message 31 146 158 196617 window flags close \, window exec;#P message 16 164 168 196617 window flags noclose \, window exec;#P connect 3 0 4 0;#P connect 4 0 5 0;#P connect 6 0 2 0;#P connect 2 0 0 0;#P connect 2 1 1 0;#P connect 1 0 7 0;#P connect 0 0 7 0;#P pop;#P hidden newobj 24 -1 50 1310729 p closebox;#B color 6;#P toggle 1 1 15 0;#N thispatcher;#Q end;#P hidden newobj 39 -1 51 1310729 thispatcher;#P comment 17 1 74 1310729 inhibit close box;#P button 258 49 15 0;#P window setfont "Sans Serif" 9.;#P newex 258 28 99 196617 r /instruments/init;#B color 9;#P newex 44 28 189 196617 editorwindow /instruments /tapemovie;#B color 6;#N thispatcher;#Q end;#P newobj 44 48 61 196617 thispatcher;#P comment 358 29 182 196617 <- inits with each /tapemovie/init_all;#P comment 63 114 100 196617 couleur;#P hidden connect 9 0 8 0;#P hidden connect 8 0 9 0;#P hidden connect 9 1 7 0;#P fasten 2 0 3 0 49 68 40 68 40 25 49 25;#P connect 3 0 2 0;#P connect 21 0 13 0;#P connect 19 0 13 0;#P connect 17 0 13 0;#P connect 16 0 13 0;#P connect 15 0 13 0;#P connect 14 0 13 0;#P connect 10 0 13 0;#P connect 4 0 5 0;#P connect 11 0 12 0;#P pop;